HIERARCHY
ROOT reference
{
  OFFSET 0 0 0
  CHANNELS 6 Xposition Yposition Zposition Zrotation Xrotation Yrotation
  JOINT Hips
  {
    OFFSET 387.421 88.6843 214.036
    CHANNELS 3 Zrotation Xrotation Yrotation
    JOINT RightUpLeg
    {
      OFFSET -9.26407 -1.54033 -0.0169218
      CHANNELS 3 Zrotation Xrotation Yrotation
      JOINT RightLeg
      {
        OFFSET 0.0262756 -41.889 0.0389421
        CHANNELS 3 Zrotation Xrotation Yrotation
        JOINT RightFoot
        {
          OFFSET -0.025595 -42.7244 0.117519
          CHANNELS 3 Zrotation Xrotation Yrotation
          End Site
          {
            OFFSET 0 -7.69 17.5
          }
        }
      }
    }
    JOINT LeftUpLeg
    {
      OFFSET 9.28488 -1.63184 0.00456132
      CHANNELS 3 Zrotation Xrotation Yrotation
      JOINT LeftLeg
      {
        OFFSET -0.00133996 -41.8929 0.0117795
        CHANNELS 3 Zrotation Xrotation Yrotation
        JOINT LeftFoot
        {
          OFFSET 0.253805 -40.8902 0.809143
          CHANNELS 3 Zrotation Xrotation Yrotation
          End Site
          {
            OFFSET 0 -7.69 17.5
          }
        }
      }
    }
    JOINT Spine
    {
      OFFSET 0.04218 14.2944 0.0529257
      CHANNELS 3 Zrotation Xrotation Yrotation
      JOINT Spine1
      {
        OFFSET 0.022284 9.72228 0.00997239
        CHANNELS 3 Zrotation Xrotation Yrotation
        JOINT Spine2
        {
          OFFSET 0.0397412 10.1199 -0.0103674
          CHANNELS 3 Zrotation Xrotation Yrotation
          JOINT Spine3
          {
            OFFSET 0.0389473 9.71765 -0.00772733
            CHANNELS 3 Zrotation Xrotation Yrotation
            JOINT Neck
            {
              OFFSET 0.0437972 10.3765 0.0320322
              CHANNELS 3 Zrotation Xrotation Yrotation
              JOINT Head
              {
                OFFSET 0.0431994 9.46781 0.0291763
                CHANNELS 3 Zrotation Xrotation Yrotation
                End Site
                {
                  OFFSET 0 15.95 0
                }
              }
            }
            JOINT RightShoulder
            {
              OFFSET -3.17206 6.93005 0.0018626
              CHANNELS 3 Zrotation Xrotation Yrotation
              JOINT RightArm
              {
                OFFSET -12.781 0.0116363 0.0199633
                CHANNELS 3 Zrotation Xrotation Yrotation
                JOINT RightForeArm
                {
                  OFFSET -26.5135 -0.0113607 0.0486864
                  CHANNELS 3 Zrotation Xrotation Yrotation
                  JOINT RightHand
                  {
                    OFFSET -25.9857 -0.0984063 0.163753
                    CHANNELS 3 Zrotation Xrotation Yrotation
                    JOINT RightHandThumb1
                    {
                      OFFSET -2.48905 0.190105 3.12053
                      CHANNELS 3 Zrotation Xrotation Yrotation
                      JOINT RightHandThumb2
                      {
                        OFFSET -3.68274 0 0
                        CHANNELS 3 Zrotation Xrotation Yrotation
                        JOINT RightHandThumb3
                        {
                          OFFSET -2.55832 0 0
                          CHANNELS 3 Zrotation Xrotation Yrotation
                          End Site
                          {
                            OFFSET -2.194 0 0
                          }
                        }
                      }
                    }
                    JOINT RightInHandIndex
                    {
                      OFFSET -3.22368 0.508421 1.97842
                      CHANNELS 3 Zrotation Xrotation Yrotation
                      JOINT RightHandIndex1
                      {
                        OFFSET -5.21684 -0.091368 0.999158
                        CHANNELS 3 Zrotation Xrotation Yrotation
                        JOINT RightHandIndex2
                        {
                          OFFSET -3.61937 0 0
                          CHANNELS 3 Zrotation Xrotation Yrotation
                          JOINT RightHandIndex3
                          {
                            OFFSET -2.0521 0 0
                            CHANNELS 3 Zrotation Xrotation Yrotation
                            End Site
                            {
                              OFFSET -1.805 0 0
                            }
                          }
                        }
                      }
                    }
                    JOINT RightInHandMiddle
                    {
                      OFFSET -3.38211 0.517263 0.756737
                      CHANNELS 3 Zrotation Xrotation Yrotation
                      JOINT RightHandMiddle1
                      {
                        OFFSET -5.17411 -0.084 0.313895
                        CHANNELS 3 Zrotation Xrotation Yrotation
                        JOINT RightHandMiddle2
                        {
                          OFFSET -3.94947 0 0
                          CHANNELS 3 Zrotation Xrotation Yrotation
                          JOINT RightHandMiddle3
                          {
                            OFFSET -2.47579 0 0
                            CHANNELS 3 Zrotation Xrotation Yrotation
                            End Site
                            {
                              OFFSET -1.975 0 0
                            }
                          }
                        }
                      }
                    }
                    JOINT RightInHandRing
                    {
                      OFFSET -3.36516 0.537895 -0.128947
                      CHANNELS 3 Zrotation Xrotation Yrotation
                      JOINT RightHandRing1
                      {
                        OFFSET -4.63474 -0.022105 -0.478947
                        CHANNELS 3 Zrotation Xrotation Yrotation
                        JOINT RightHandRing2
                        {
                          OFFSET -3.44238 0 0
                          CHANNELS 3 Zrotation Xrotation Yrotation
                          JOINT RightHandRing3
                          {
                            OFFSET -2.3881 0 0
                            CHANNELS 3 Zrotation Xrotation Yrotation
                            End Site
                            {
                              OFFSET -1.857 0 0
                            }
                          }
                        }
                      }
                    }
                    JOINT RightInHandPinky
                    {
                      OFFSET -3.16105 0.469368 -1.20179
                      CHANNELS 3 Zrotation Xrotation Yrotation
                      JOINT RightHandPinky1
                      {
                        OFFSET -4.14105 -0.022105 -1.09053
                        CHANNELS 3 Zrotation Xrotation Yrotation
                        JOINT RightHandPinky2
                        {
                          OFFSET -2.75653 0 0
                          CHANNELS 3 Zrotation Xrotation Yrotation
                          JOINT RightHandPinky3
                          {
                            OFFSET -1.74189 0 0
                            CHANNELS 3 Zrotation Xrotation Yrotation
                            End Site
                            {
                              OFFSET -1.645 0 0
                            }
                          }
                        }
                      }
                    }
                  }
                }
              }
            }
            JOINT LeftShoulder
            {
              OFFSET 3.23848 6.90919 -0.0119143
              CHANNELS 3 Zrotation Xrotation Yrotation
              JOINT LeftArm
              {
                OFFSET 12.8241 -0.0554782 -0.0520121
                CHANNELS 3 Zrotation Xrotation Yrotation
                JOINT LeftForeArm
                {
                  OFFSET 26.4865 -0.0658343 -0.0244543
                  CHANNELS 3 Zrotation Xrotation Yrotation
                  JOINT LeftHand
                  {
                    OFFSET 25.985 -0.0475988 -0.0124738
                    CHANNELS 3 Zrotation Xrotation Yrotation
                    JOINT LeftHandThumb1
                    {
                      OFFSET 2.48905 0.190105 3.12053
                      CHANNELS 3 Zrotation Xrotation Yrotation
                      JOINT LeftHandThumb2
                      {
                        OFFSET 3.68274 0 0
                        CHANNELS 3 Zrotation Xrotation Yrotation
                        JOINT LeftHandThumb3
                        {
                          OFFSET 2.55832 0 0
                          CHANNELS 3 Zrotation Xrotation Yrotation
                          End Site
                          {
                            OFFSET 2.194 0 0
                          }
                        }
                      }
                    }
                    JOINT LeftInHandIndex
                    {
                      OFFSET 3.22368 0.508421 1.97842
                      CHANNELS 3 Zrotation Xrotation Yrotation
                      JOINT LeftHandIndex1
                      {
                        OFFSET 5.21684 -0.091368 0.999158
                        CHANNELS 3 Zrotation Xrotation Yrotation
                        JOINT LeftHandIndex2
                        {
                          OFFSET 3.61937 0 0
                          CHANNELS 3 Zrotation Xrotation Yrotation
                          JOINT LeftHandIndex3
                          {
                            OFFSET 2.0521 0 0
                            CHANNELS 3 Zrotation Xrotation Yrotation
                            End Site
                            {
                              OFFSET 1.805 0 0
                            }
                          }
                        }
                      }
                    }
                    JOINT LeftInHandMiddle
                    {
                      OFFSET 3.38211 0.517263 0.756737
                      CHANNELS 3 Zrotation Xrotation Yrotation
                      JOINT LeftHandMiddle1
                      {
                        OFFSET 5.17411 -0.084 0.313895
                        CHANNELS 3 Zrotation Xrotation Yrotation
                        JOINT LeftHandMiddle2
                        {
                          OFFSET 3.94947 0 0
                          CHANNELS 3 Zrotation Xrotation Yrotation
                          JOINT LeftHandMiddle3
                          {
                            OFFSET 2.47579 0 0
                            CHANNELS 3 Zrotation Xrotation Yrotation
                            End Site
                            {
                              OFFSET 1.975 0 0
                            }
                          }
                        }
                      }
                    }
                    JOINT LeftInHandRing
                    {
                      OFFSET 3.36516 0.537895 -0.128947
                      CHANNELS 3 Zrotation Xrotation Yrotation
                      JOINT LeftHandRing1
                      {
                        OFFSET 4.63474 -0.022105 -0.478947
                        CHANNELS 3 Zrotation Xrotation Yrotation
                        JOINT LeftHandRing2
                        {
                          OFFSET 3.44238 0 0
                          CHANNELS 3 Zrotation Xrotation Yrotation
                          JOINT LeftHandRing3
                          {
                            OFFSET 2.3881 0 0
                            CHANNELS 3 Zrotation Xrotation Yrotation
                            End Site
                            {
                              OFFSET 1.857 0 0
                            }
                          }
                        }
                      }
                    }
                    JOINT LeftInHandPinky
                    {
                      OFFSET 3.16105 0.469368 -1.20179
                      CHANNELS 3 Zrotation Xrotation Yrotation
                      JOINT LeftHandPinky1
                      {
                        OFFSET 4.14105 -0.022105 -1.09053
                        CHANNELS 3 Zrotation Xrotation Yrotation
                        JOINT LeftHandPinky2
                        {
                          OFFSET 2.75653 0 0
                          CHANNELS 3 Zrotation Xrotation Yrotation
                          JOINT LeftHandPinky3
                          {
                            OFFSET 1.74189 0 0
                            CHANNELS 3 Zrotation Xrotation Yrotation
                            End Site
                            {
                              OFFSET 1.645 0 0
                            }
                          }
                        }
                      }
                    }
                  }
                }
              }
            }
          }
        }
      }
    }
  }
}
MOTION
Frames: 2
Frame Time: 0.00833333
1.500000000000000000e+02 0.000000000000000000e+00 0.000000000000000000e+00 0.000000000000000000e+00 0.000000000000000000e+00 -0.000000000000000000e+00 3.741365275501454951e-02 -1.951747632459358093e-03 1.287137710020874182e-01 -4.640473895635834761e-02 -1.038128900610553185e-01 -1.125114686699195676e-01 -3.513616348056366502e-03 3.438512658850577299e-03 1.824298916834135934e-02 9.213530967073340835e-03 -5.624154926240864522e-03 -1.475847074860257846e-02 -2.871305631143739046e-03 -9.164182226350837956e-02 -7.793424149945421542e-02 2.585513314331256991e-03 -2.580278658250686682e-03 -2.026851864213357127e-02 -1.270952445006641972e-02 5.149495937203982633e-04 -3.407520608626272898e-03 7.303704787141176297e-03 -7.574591602315325529e-03 -8.075647703412845713e-02 2.567325366194990206e-03 -2.401745253896222457e-03 -2.030620970954893217e-02 4.182916370508468588e-03 -3.701616015338908550e-03 -3.269951220992853291e-02 -2.049930711412028942e-04 -1.911926097700566540e-04 5.630060351931212136e-05 -5.155415244361442808e-05 -2.906949464295824695e-03 7.931114230800171902e-03 -2.755788232413306817e-03 2.077060494768028127e-03 -3.684779381651039770e-03 -8.430279464731224148e-04 2.221048441477680574e-03 4.270890788131498708e-03 1.851009627078699371e-02 -3.563540092689014473e-03 2.121870725886673345e-02 -1.965678909958619436e-02 -1.241021399351016283e-02 -6.168002459120172989e-03 1.906004786225991982e-02 -6.058942242456247240e-02 1.659884211682885122e-02 0.000000000000000000e+00 0.000000000000000000e+00 0.000000000000000000e+00 -2.245972242490042189e-16 1.493875231541952096e-15 0.000000000000000000e+00 -1.640105349713844247e-15 1.066502971765502588e-15 0.000000000000000000e+00 -2.883823421009221868e-15 -1.049228918560594190e-15 7.690789885320727870e-16 0.000000000000000000e+00 0.000000000000000000e+00 0.000000000000000000e+00 0.000000000000000000e+00 -4.265236152737959857e-16 -1.346530062837529126e-15 0.000000000000000000e+00 -4.407697461467674509e-17 8.937246318564707516e-16 -2.883823421009221868e-15 -1.049228918560594190e-15 7.690789885320727870e-16 0.000000000000000000e+00 -1.061493107075864867e-16 6.492584903831220317e-16 0.000000000000000000e+00 -2.196528297185004714e-16 -1.912962470988921184e-16 0.000000000000000000e+00 -9.510877807487676849e-16 -7.447749439586122876e-17 -2.883823421009221868e-15 -1.049228918560594190e-15 7.690789885320727870e-16 0.000000000000000000e+00 0.000000000000000000e+00 0.000000000000000000e+00 0.000000000000000000e+00 -5.294260677693203911e-16 -1.434876346965975112e-16 0.000000000000000000e+00 5.456846772319692924e-16 1.138999628313434156e-15 -2.883823421009221868e-15 -1.049228918560594190e-15 7.690789885320727870e-16 0.000000000000000000e+00 0.000000000000000000e+00 0.000000000000000000e+00 0.000000000000000000e+00 1.703421910082529868e-15 -6.355564086991685376e-16 0.000000000000000000e+00 -9.087357417218175383e-16 8.825849443209128447e-17 -2.347672906177625252e-02 -1.389132583727752113e-02 -3.455596623196311584e-02 -2.853475422437480938e-02 3.945525597549401353e-02 6.756748179320774816e-02 1.031042210274922197e-02 3.860137501221603748e-03 -4.246088142510052316e-02 2.555918001952450259e-04 -1.099088688160774069e-01 3.168881534331163263e-01 0.000000000000000000e+00 0.000000000000000000e+00 0.000000000000000000e+00 1.094471916977042869e-15 1.357671764781763710e-15 0.000000000000000000e+00 9.163185259612419394e-16 5.376539122471571430e-17 0.000000000000000000e+00 1.016971273564354606e-15 4.334458317538561185e-17 1.295030351857896902e-16 0.000000000000000000e+00 0.000000000000000000e+00 0.000000000000000000e+00 0.000000000000000000e+00 5.003075172717618367e-17 -7.989927743747419977e-18 0.000000000000000000e+00 -7.474000168488253222e-17 -1.188078831818268411e-16 1.016971273564354606e-15 4.334458317538561185e-17 1.295030351857896902e-16 0.000000000000000000e+00 2.035419517012616378e-16 7.293784382264683102e-17 0.000000000000000000e+00 6.163465391716232805e-17 3.437762820534859092e-16 0.000000000000000000e+00 -1.375706880762364522e-17 -3.686077171050186316e-16 1.016971273564354606e-15 4.334458317538561185e-17 1.295030351857896902e-16 0.000000000000000000e+00 0.000000000000000000e+00 0.000000000000000000e+00 0.000000000000000000e+00 7.774146906009751310e-16 1.216374900660236136e-16 0.000000000000000000e+00 2.727779792577319177e-16 -3.123271026478124353e-16 1.016971273564354606e-15 4.334458317538561185e-17 1.295030351857896902e-16 0.000000000000000000e+00 0.000000000000000000e+00 0.000000000000000000e+00 0.000000000000000000e+00 -2.090376766923802238e-15 -6.202792720673123832e-16 0.000000000000000000e+00 -1.432183714336692870e-15 1.657368379803979351e-15
1.500000000000000000e+02 0.000000000000000000e+00 0.000000000000000000e+00 0.000000000000000000e+00 0.000000000000000000e+00 -0.000000000000000000e+00 -3.294824611944510706e-02 8.139377522053440131e-03 -1.541503962571225961e-01 6.922541027417584980e-02 1.148056117467055603e-01 1.240674713895738579e-01 -1.559019351509142570e-03 3.772532395005745876e-03 3.616334079778359828e-02 5.759999104420984034e-03 -4.500530639589306846e-03 -2.496858241534799169e-02 3.684653230705598609e-02 1.370683123446396201e-01 1.516640314212613083e-01 1.828174998349392164e-02 4.606990091511711446e-03 -4.867856554922368739e-02 4.320217591578827052e-03 1.579649657697795992e-03 -2.077213961441397479e-03 -2.176093764797475821e-03 9.247269706044091916e-03 9.465324493407759054e-02 -1.442949277305632895e-03 3.199870130631317887e-03 2.364169843060950904e-02 -2.243777845759673852e-03 5.039463501973112484e-03 3.798492861016940919e-02 2.349283345988909910e-04 4.294108239042873616e-05 -5.793946171607735387e-05 4.447824499854271326e-04 1.550345146021780886e-03 -3.732912172956116565e-03 4.214066357787608387e-03 -4.923553916085006248e-03 1.219715667071337743e-03 7.785783972745892630e-03 -4.122273220801948856e-03 2.179397654421442315e-02 -2.070886731202271989e-03 2.446850610186596976e-03 -5.569812232499340467e-03 -1.589031939866579132e-02 -1.023260196675322524e-02 6.270572487181456066e-03 -1.035459288730294046e-02 3.122913556840065108e-01 -6.373029325221525598e-02 0.000000000000000000e+00 0.000000000000000000e+00 0.000000000000000000e+00 3.767360804247884629e-15 -8.258147264794371763e-16 0.000000000000000000e+00 -1.038157383470113304e-15 1.695541288333715833e-15 0.000000000000000000e+00 6.820895031540042824e-15 -3.602669444759407114e-16 -1.987019037402717542e-15 0.000000000000000000e+00 0.000000000000000000e+00 0.000000000000000000e+00 0.000000000000000000e+00 1.451217713401901084e-15 2.816630970680819699e-15 0.000000000000000000e+00 9.065071138524037491e-16 -7.726080440355524649e-16 6.820895031540042824e-15 -3.602669444759407114e-16 -1.987019037402717542e-15 0.000000000000000000e+00 -2.015815569416953344e-16 2.091275210409007920e-16 0.000000000000000000e+00 6.576400190385311957e-17 1.188837282699424533e-15 0.000000000000000000e+00 3.882589678295114260e-17 2.631111404183142436e-16 6.820895031540042824e-15 -3.602669444759407114e-16 -1.987019037402717542e-15 0.000000000000000000e+00 0.000000000000000000e+00 0.000000000000000000e+00 0.000000000000000000e+00 1.161099032869249076e-15 1.740501232164305918e-15 0.000000000000000000e+00 -1.787137030869708625e-16 -9.665237663174565683e-16 6.820895031540042824e-15 -3.602669444759407114e-16 -1.987019037402717542e-15 0.000000000000000000e+00 0.000000000000000000e+00 0.000000000000000000e+00 0.000000000000000000e+00 -3.527402629657400477e-15 -1.469582784300362616e-15 0.000000000000000000e+00 -4.312273128552672053e-16 1.426090401119400915e-15 -7.954968314555367626e-03 -6.171396098731579336e-03 -2.402709811720409733e-02 -3.543221442289194723e-02 6.500173014224916446e-02 1.125178234590901161e-01 9.851676943396222436e-03 4.445196485762856892e-02 7.058844733122285331e-02 -4.615558604607321314e-03 2.050212162076614775e-01 -6.022823932813121672e-01 0.000000000000000000e+00 0.000000000000000000e+00 0.000000000000000000e+00 -4.713093511444119924e-15 -3.595556722838702156e-16 0.000000000000000000e+00 -3.715329230266119571e-15 6.852559246938214485e-17 0.000000000000000000e+00 4.152787928635341096e-16 -2.014914383648157946e-16 -8.955887837089494498e-17 0.000000000000000000e+00 0.000000000000000000e+00 0.000000000000000000e+00 0.000000000000000000e+00 2.754971970674777177e-17 -3.374806166824540913e-17 0.000000000000000000e+00 2.813345405678776440e-16 -4.267971085311967875e-16 4.152787928635341096e-16 -2.014914383648157946e-16 -8.955887837089494498e-17 0.000000000000000000e+00 -3.360682981254496672e-16 -6.319248888084979348e-17 0.000000000000000000e+00 -2.285043341665358874e-16 -6.250337915465980230e-16 0.000000000000000000e+00 5.878890600823592926e-16 6.776365728160863376e-16 4.152787928635341096e-16 -2.014914383648157946e-16 -8.955887837089494498e-17 0.000000000000000000e+00 0.000000000000000000e+00 0.000000000000000000e+00 0.000000000000000000e+00 -5.094173597893734329e-16 -4.596304210686820927e-17 0.000000000000000000e+00 -2.963282437253412394e-16 2.556511276998961375e-16 4.152787928635341096e-16 -2.014914383648157946e-16 -8.955887837089494498e-17 0.000000000000000000e+00 0.000000000000000000e+00 0.000000000000000000e+00 0.000000000000000000e+00 1.236918559690767170e-15 -4.111372954603052119e-18 0.000000000000000000e+00 -1.443042187415114895e-16 -9.382742012938440928e-16
